<?xml version="1.0" standalone="no"?>
<!DOCTYPE svg PUBLIC "-//W3C//DTD SVG 20010904//EN"
 "http://www.w3.org/TR/2001/REC-SVG-20010904/DTD/svg10.dtd">
<svg version="1.0" xmlns="http://www.w3.org/2000/svg"
 width="566.000000pt" height="566.000000pt" viewBox="0 0 566.000000 566.000000"
 preserveAspectRatio="xMidYMid meet">
<metadata>
Created by potrace 1.14, written by Peter Selinger 2001-2017
</metadata>
<g transform="translate(0.000000,566.000000) scale(0.100000,-0.100000)"
fill="#000000" stroke="none">
<path d="M2648 5589 c-1020 -65 -1933 -703 -2346 -1639 -462 -1049 -235 -2266
574 -3074 808 -809 2025 -1036 3074 -574 1281 565 1942 2025 1515 3346 -319
987 -1185 1737 -2206 1911 -101 18 -408 43 -464 40 -11 -1 -77 -6 -147 -10z
m893 -899 c3 -19 12 -66 19 -105 27 -147 81 -289 135 -354 l27 -31 274 0 c238
0 275 -2 281 -15 3 -9 -3 -25 -13 -36 -35 -39 -231 -148 -327 -182 -16 -6 -4
-22 71 -96 103 -101 176 -207 273 -397 113 -222 164 -413 175 -657 12 -246
-39 -492 -152 -735 -63 -137 -87 -242 -88 -387 -1 -143 15 -201 76 -269 44
-51 44 -70 1 -79 -91 -18 -240 49 -305 136 l-31 42 6 -95 c7 -114 36 -214 77
-265 58 -72 29 -93 -63 -45 -103 55 -205 130 -263 194 -51 56 -55 59 -61 37
-3 -13 -23 -59 -44 -102 -45 -93 -123 -180 -191 -215 -41 -21 -47 -22 -59 -8
-11 13 -8 24 16 67 26 45 30 62 30 129 0 42 -4 80 -8 85 -5 4 -18 -3 -28 -17
-11 -14 -38 -47 -61 -73 l-40 -48 32 -71 c28 -61 32 -76 23 -99 -8 -21 -7 -38
3 -66 20 -57 17 -71 -18 -93 -74 -46 -386 -131 -678 -185 -143 -27 -158 -24
-135 31 17 41 27 40 -135 14 -141 -22 -186 -25 -195 -10 -14 23 66 163 174
304 36 48 46 71 53 118 4 33 12 68 18 78 6 11 46 33 95 51 47 18 84 34 82 35
-2 2 -48 -6 -102 -18 -146 -32 -444 -32 -560 0 -227 62 -415 215 -475 385 -20
57 -30 192 -16 215 3 6 20 13 36 17 45 10 44 20 -2 54 -87 63 -165 180 -219
323 l-19 53 5 -87 c4 -49 13 -111 21 -139 29 -98 -8 -108 -66 -17 -90 142
-147 330 -158 528 -21 366 55 715 204 943 56 85 176 207 256 260 31 20 80 58
110 83 205 177 567 346 888 415 147 31 414 38 577 14 105 -15 269 -52 316 -70
17 -7 18 -3 12 71 -9 95 8 214 41 302 44 119 91 155 105 82z"/>
<path d="M3480 4638 c-38 -86 -54 -169 -54 -283 0 -60 3 -123 7 -139 7 -26 6
-28 -15 -22 -408 117 -696 127 -1034 37 -282 -75 -555 -211 -769 -382 -33 -26
-98 -77 -145 -112 -90 -67 -173 -158 -228 -250 -187 -311 -242 -860 -122
-1215 25 -73 88 -202 110 -225 4 -5 1 17 -6 50 -21 83 -28 247 -18 398 l8 130
7 -85 c23 -254 114 -468 246 -576 31 -24 57 -43 59 -41 2 1 -8 31 -22 66 -67
166 -96 402 -75 621 22 227 46 354 99 517 l26 82 36 -77 c48 -100 160 -297
223 -391 l50 -74 4 -131 c5 -111 2 -145 -16 -221 -12 -49 -31 -105 -42 -124
-11 -18 -18 -35 -16 -38 10 -10 115 119 145 179 36 70 49 78 140 78 38 0 39
-2 8 -33 -36 -37 -56 -116 -56 -228 l0 -97 88 0 c48 0 106 -5 130 -10 l42 -10
0 32 c-1 85 -55 251 -98 300 -16 18 -16 18 6 7 46 -24 152 -134 217 -226 l67
-95 44 61 c43 61 43 62 27 93 -24 46 -139 158 -211 204 -93 60 -176 85 -268
80 -41 -2 -74 -2 -74 -1 0 1 7 30 14 65 8 35 18 98 22 142 l7 78 50 -7 c28 -3
76 -15 106 -27 31 -11 67 -22 81 -25 24 -4 24 -4 6 11 -30 24 -120 55 -181 62
l-55 7 0 66 c0 36 -3 104 -6 151 l-7 85 89 -86 c49 -47 125 -112 168 -144 88
-64 273 -177 354 -214 l52 -24 0 -183 c0 -201 -16 -353 -54 -509 -13 -55 -23
-101 -22 -102 6 -6 109 161 149 242 64 130 117 312 117 407 0 20 4 28 9 22 13
-13 86 -226 101 -297 7 -31 16 -57 20 -57 3 0 19 14 36 31 45 49 171 128 231
145 80 23 203 16 267 -15 63 -31 122 -90 149 -150 34 -72 30 -197 -8 -276 -41
-85 -125 -165 -227 -214 -105 -51 -190 -71 -300 -71 l-88 0 0 -27 c-1 -52 -19
-215 -24 -221 -3 -3 -14 2 -24 11 -10 10 -24 17 -31 17 -21 0 -309 -97 -441
-149 -136 -53 -136 -52 -139 -141 -1 -27 -19 -60 -80 -143 -43 -59 -95 -138
-114 -175 l-36 -69 142 23 c78 13 161 26 184 30 l43 6 -26 -46 c-15 -26 -24
-49 -22 -51 12 -12 413 75 602 131 140 41 196 68 196 92 0 9 -14 48 -30 85
l-29 68 25 -15 c22 -15 24 -15 24 1 0 10 -16 47 -35 82 l-34 64 50 56 c28 31
65 78 82 105 l32 48 19 -43 c13 -30 20 -68 20 -119 1 -63 -3 -82 -26 -122 -29
-53 -29 -54 10 -34 86 44 183 196 220 345 17 67 20 70 25 42 18 -89 162 -223
327 -306 54 -27 55 -27 34 -4 -65 72 -106 262 -89 415 l7 67 34 -64 c36 -69
92 -126 149 -153 39 -19 143 -39 156 -30 5 3 -4 22 -21 42 -16 20 -36 54 -45
75 -56 134 -27 418 60 594 145 295 193 695 119 998 -85 346 -296 700 -513 859
-30 22 -32 26 -15 31 103 33 288 124 354 175 25 20 24 20 -241 20 l-267 0 -35
40 c-65 71 -118 206 -151 380 -9 46 -18 86 -21 88 -3 3 -14 -15 -25 -40z
m-1915 -1109 l7 -59 20 25 c28 36 65 33 73 -5 14 -64 -19 -200 -49 -200 -16 0
-52 41 -61 71 -6 17 -15 11 -67 -45 -93 -102 -125 -89 -116 47 6 99 73 223
133 247 32 13 52 -15 60 -81z"/>
<path d="M2998 1429 c-21 -11 -38 -21 -38 -22 0 -2 18 -3 40 -2 35 0 40 3 40
23 0 12 -1 22 -2 22 -2 -1 -20 -10 -40 -21z"/>
</g>
</svg>
